<svg xmlns="http://www.w3.org/2000/svg" viewBox="0 0 32 32" id="conversation"><path fill="#82c8ec" d="M18,.5H14a1,1,0,0,0-1,1v2a1,1,0,0,0,1,1h.879L15.5,6.121,17.121,4.5H18a1,1,0,0,0,1-1v-2A1,1,0,0,0,18,.5Z"></path><path fill="#d9d8da" d="M17,3H15a.5.5,0,0,1,0-1h2a.5.5,0,0,1,0,1Z"></path><path fill="#57565d" d="M16,32a.5.5,0,0,1-.5-.5v-14a.5.5,0,0,1,1,0v14A.5.5,0,0,1,16,32Z"></path><path fill="#57565d" d="M20.5 18h-9a.5.5 0 0 1 0-1h9a.5.5 0 0 1 0 1zM17.5 32h-3a.5.5 0 0 1 0-1h3a.5.5 0 0 1 0 1z"></path><rect width="3" height="4" x="24.5" y="7.969" fill="#fcc37a"></rect><rect width="3" height="3" x="4.5" y="8.969" fill="#fcc37a"></rect><path fill="#55bb8c" d="M15.5,15.47a1.5,1.5,0,0,1-1.5,1.5H9.5v5.11h-7V12.97a2.015,2.015,0,0,1,2-2H6.8a1.852,1.852,0,0,1,.7.13,1.768,1.768,0,0,1,.55.31l3.2,2.56H14A1.5,1.5,0,0,1,15.5,15.47Z"></path><path fill="#416fb3" d="M2.5,18.969v4a1,1,0,0,0,1,1h6v6.5a1.5,1.5,0,0,0,1.5,1.5h0a1.5,1.5,0,0,0,1.5-1.5v-8.68a1,1,0,0,0-.8-.981L6,19.669Z"></path><path fill="#ffd9aa" d="M15.5,15.469a1.5,1.5,0,0,1-1.5,1.5h-.5v-3H14A1.5,1.5,0,0,1,15.5,15.469Z"></path><path fill="#fbde53" d="M16.5,15.469a1.5,1.5,0,0,0,1.5,1.5h4.5v5.11h7v-9.11a2.015,2.015,0,0,0-2-2H25.2a1.986,1.986,0,0,0-1.25.44l-3.2,2.56H18A1.5,1.5,0,0,0,16.5,15.469Z"></path><path fill="#416fb3" d="M29.5,18.969v4a1,1,0,0,1-1,1h-6v6.5a1.5,1.5,0,0,1-1.5,1.5h0a1.5,1.5,0,0,1-1.5-1.5v-8.68a1,1,0,0,1,.8-.981L26,19.669Z"></path><path fill="#ffd9aa" d="M16.5 15.469a1.5 1.5 0 0 0 1.5 1.5h.5v-3H18A1.5 1.5 0 0 0 16.5 15.469zM9.5 6.469a3.492 3.492 0 0 1-6.65 1.5H2.84a3.406 3.406 0 0 1-.34-1.5 3.5 3.5 0 0 1 6.69-1.43A3.432 3.432 0 0 1 9.5 6.469z"></path><path fill="#57565d" d="M9.19 5.039L4.9 5.889a.5.5 0 0 0-.4.49V7.469a.5.5 0 0 1-.5.5H2.84a3.5 3.5 0 1 1 6.35-2.93zM.5 32a.5.5 0 0 1-.5-.5v-15a.5.5 0 0 1 1 0v15A.5.5 0 0 1 .5 32z"></path><path fill="#57565d" d="M7.5 32a.5.5 0 0 1-.5-.5V25H.5a.5.5 0 0 1 0-1h7a.5.5 0 0 1 .5.5v7A.5.5 0 0 1 7.5 32zM31.5 32a.5.5 0 0 1-.5-.5v-15a.5.5 0 0 1 1 0v15A.5.5 0 0 1 31.5 32z"></path><path fill="#57565d" d="M24.5,32a.5.5,0,0,1-.5-.5v-7a.5.5,0,0,1,.5-.5h7a.5.5,0,0,1,0,1H25v6.5A.5.5,0,0,1,24.5,32Z"></path><rect width="1" height="3" x="12.5" y="13.97" fill="#3eb57b"></rect><rect width="1" height="3" x="18.5" y="13.97" fill="#f7c229"></rect><circle cx="27.722" cy="3.311" r="2" fill="#4c4c51"></circle><path fill="#ffd9aa" d="M29.25,6.469a3.5,3.5,0,1,1-5.73-2.69,3.427,3.427,0,0,1,2.23-.81A3.5,3.5,0,0,1,29.25,6.469Z"></path><path fill="#57565d" d="M29.25,6.469a3.481,3.481,0,0,1-1.29,2.71l-.09-.13a8.83,8.83,0,0,1-1.85-3.48,7.3,7.3,0,0,1-2.39-1.68l-.11-.11a3.427,3.427,0,0,1,2.23-.81A3.5,3.5,0,0,1,29.25,6.469Z"></path></svg>